<svg width="15" height="16" viewBox="0 0 15 16" fill="none" xmlns="http://www.w3.org/2000/svg">
<path d="M1.27539 15.7743V7.18105H0V3.06691H4.08257C3.97125 2.93835 3.89559 2.79355 3.85559 2.6325C3.81559 2.47158 3.79559 2.30257 3.79559 2.12546C3.79559 1.53507 4.00224 1.03322 4.41553 0.619934C4.82882 0.206644 5.33066 0 5.92105 0C6.22368 0 6.50408 0.0634861 6.76224 0.19046C7.02026 0.317565 7.25099 0.487368 7.45441 0.699868C7.65783 0.47921 7.88862 0.307434 8.14678 0.184539C8.4048 0.0615127 8.68513 0 8.98776 0C9.57829 0 10.0802 0.206644 10.4935 0.619934C10.9068 1.03322 11.1134 1.53507 11.1134 2.12546C11.1134 2.30059 11.0914 2.46711 11.0473 2.625C11.0032 2.78289 10.9296 2.9302 10.8264 3.06691H15V7.18105H13.7246V15.7743H1.27539ZM8.98776 1.18421C8.72105 1.18421 8.4975 1.27441 8.31711 1.4548C8.13671 1.6352 8.04651 1.85875 8.04651 2.12546C8.04651 2.39217 8.13671 2.61572 8.31711 2.79612C8.4975 2.97664 8.72105 3.06691 8.98776 3.06691C9.25447 3.06691 9.47809 2.97664 9.65862 2.79612C9.83901 2.61572 9.92921 2.39217 9.92921 2.12546C9.92921 1.85875 9.83901 1.6352 9.65862 1.4548C9.47809 1.27441 9.25447 1.18421 8.98776 1.18421ZM4.9798 2.12546C4.9798 2.39217 5.07 2.61572 5.25039 2.79612C5.43079 2.97664 5.65434 3.06691 5.92105 3.06691C6.18776 3.06691 6.41132 2.97664 6.59171 2.79612C6.77211 2.61572 6.8623 2.39217 6.8623 2.12546C6.8623 1.85875 6.77211 1.6352 6.59171 1.4548C6.41132 1.27441 6.18776 1.18421 5.92105 1.18421C5.65434 1.18421 5.43079 1.27441 5.25039 1.4548C5.07 1.6352 4.9798 1.85875 4.9798 2.12546ZM1.18421 4.25092V5.99704H6.90789V4.25092H1.18421ZM6.90789 14.5901V7.18105H2.45941V14.5901H6.90789ZM8.09211 14.5901H12.5406V7.18105H8.09211V14.5901ZM13.8158 5.99704V4.25092H8.09211V5.99704H13.8158Z" fill="white"/>
</svg>
