<svg width="61" height="60" viewBox="0 0 61 60" fill="none" xmlns="http://www.w3.org/2000/svg">
<mask id="mask0_21_1091" style="mask-type:alpha" maskUnits="userSpaceOnUse" x="0" y="0" width="61" height="60">
<rect x="0.5" width="60" height="60" fill="#D9D9D9"/>
</mask>
<g mask="url(#mask0_21_1091)">
<path d="M14.5387 52.5C13.42 52.5 12.4671 52.1067 11.68 51.32C10.8933 50.5329 10.5 49.58 10.5 48.4613V20.6587C9.78208 20.3604 9.18583 19.8787 8.71125 19.2137C8.23708 18.5487 8 17.7852 8 16.9231V11.5387C8 10.42 8.39333 9.46708 9.18 8.68C9.96708 7.89333 10.92 7.5 12.0387 7.5H48.9613C50.08 7.5 51.0329 7.89333 51.82 8.68C52.6067 9.46708 53 10.42 53 11.5387V16.9231C53 17.7852 52.7629 18.5487 52.2887 19.2137C51.8142 19.8787 51.2179 20.3604 50.5 20.6587V48.4613C50.5 49.58 50.1067 50.5329 49.32 51.32C48.5329 52.1067 47.58 52.5 46.4613 52.5H14.5387ZM13 20.9613V48.2212C13 48.7342 13.1844 49.1588 13.5531 49.495C13.9215 49.8317 14.3781 50 14.9231 50H46.4613C46.91 50 47.2788 49.8558 47.5675 49.5675C47.8558 49.2788 48 48.91 48 48.4613V20.9613H13ZM12.0387 18.4613H48.9613C49.41 18.4613 49.7788 18.3171 50.0675 18.0288C50.3558 17.7404 50.5 17.3719 50.5 16.9231V11.5387C50.5 11.09 50.3558 10.7212 50.0675 10.4325C49.7788 10.1442 49.41 10 48.9613 10H12.0387C11.59 10 11.2212 10.1442 10.9325 10.4325C10.6442 10.7212 10.5 11.09 10.5 11.5387V16.9231C10.5 17.3719 10.6442 17.7404 10.9325 18.0288C11.2212 18.3171 11.59 18.4613 12.0387 18.4613ZM23.9613 32.1638H37.0388V30H23.9613V32.1638Z" fill="white"/>
</g>
</svg>
