<svg width="60" height="60" viewBox="0 0 60 60" fill="none" xmlns="http://www.w3.org/2000/svg">
<mask id="mask0_21_1094" style="mask-type:alpha" maskUnits="userSpaceOnUse" x="0" y="0" width="60" height="60">
<rect width="60" height="60" fill="#D9D9D9"/>
</mask>
<g mask="url(#mask0_21_1094)">
<path d="M38.75 48.0337L29.8556 39.1393L31.625 37.37L38.75 44.495L52.9712 30.2737L54.7406 32.0431L38.75 48.0337ZM50 25H47.5V14.0387C47.5 13.6537 47.3398 13.301 47.0194 12.9806C46.699 12.6602 46.3463 12.5 45.9613 12.5H40V18.0768H20V12.5H14.0387C13.6537 12.5 13.301 12.6602 12.9806 12.9806C12.6602 13.301 12.5 13.6537 12.5 14.0387V45.9612C12.5 46.3462 12.6602 46.6989 12.9806 47.0193C13.301 47.3398 13.6537 47.5 14.0387 47.5H27.5V50H14.0387C12.92 50 11.9671 49.6066 11.18 48.82C10.3933 48.0329 10 47.08 10 45.9612V14.0387C10 12.92 10.3933 11.967 11.18 11.18C11.9671 10.3933 12.92 9.99996 14.0387 9.99996H25.63C25.8637 9.02246 26.3829 8.20121 27.1875 7.53621C27.9921 6.8708 28.9296 6.53809 30 6.53809C31.0896 6.53809 32.0344 6.8708 32.8344 7.53621C33.634 8.20121 34.1506 9.02246 34.3844 9.99996H45.9613C47.08 9.99996 48.0329 10.3933 48.82 11.18C49.6067 11.967 50 12.92 50 14.0387V25ZM30 13.0768C30.58 13.0768 31.0617 12.8854 31.445 12.5025C31.8279 12.1195 32.0194 11.6379 32.0194 11.0575C32.0194 10.4775 31.8279 9.996 31.445 9.61309C31.0617 9.23017 30.58 9.03871 30 9.03871C29.42 9.03871 28.9383 9.23017 28.555 9.61309C28.1721 9.996 27.9806 10.4775 27.9806 11.0575C27.9806 11.6379 28.1721 12.1195 28.555 12.5025C28.9383 12.8854 29.42 13.0768 30 13.0768Z" fill="white"/>
</g>
</svg>
