<svg width="60" height="60" viewBox="0 0 60 60" fill="none" xmlns="http://www.w3.org/2000/svg">
<mask id="mask0_21_1097" style="mask-type:alpha" maskUnits="userSpaceOnUse" x="0" y="0" width="60" height="60">
<rect width="60" height="60" fill="#D9D9D9"/>
</mask>
<g mask="url(#mask0_21_1097)">
<path d="M14.2173 47.7888C12.3981 47.7888 10.8554 47.1529 9.58914 45.8812C8.32331 44.61 7.69039 43.0662 7.69039 41.25H4.22852V16.5387C4.22852 15.3879 4.61393 14.4271 5.38477 13.6563C6.1556 12.8854 7.11643 12.5 8.26727 12.5H41.3441V21.5387H47.1135L55.7673 33.1731V41.25H51.7285C51.7285 43.0662 51.0918 44.61 49.8185 45.8812C48.5448 47.1529 46.9983 47.7888 45.1791 47.7888C43.3596 47.7888 41.8168 47.1529 40.551 45.8812C39.2848 44.61 38.6516 43.0662 38.6516 41.25H20.7673C20.7673 43.0771 20.1304 44.6235 18.8566 45.8894C17.5833 47.1556 16.0368 47.7888 14.2173 47.7888ZM14.2285 45.2888C15.3535 45.2888 16.3079 44.8969 17.0916 44.1131C17.8754 43.3294 18.2673 42.375 18.2673 41.25C18.2673 40.125 17.8754 39.1706 17.0916 38.3869C16.3079 37.6031 15.3535 37.2113 14.2285 37.2113C13.1035 37.2113 12.1491 37.6031 11.3654 38.3869C10.5821 39.1706 10.1904 40.125 10.1904 41.25C10.1904 42.375 10.5821 43.3294 11.3654 44.1131C12.1491 44.8969 13.1035 45.2888 14.2285 45.2888ZM6.72852 38.75H8.34414C8.69997 37.6475 9.42435 36.6987 10.5173 35.9037C11.6102 35.1087 12.8473 34.7113 14.2285 34.7113C15.546 34.7113 16.7673 35.1008 17.8923 35.88C19.0173 36.6588 19.7577 37.6154 20.1135 38.75H38.8441V15H8.26727C7.88268 15 7.52997 15.1602 7.20914 15.4806C6.88872 15.801 6.72852 16.1537 6.72852 16.5387V38.75ZM45.1904 45.2888C46.3154 45.2888 47.2696 44.8969 48.0529 44.1131C48.8366 43.3294 49.2285 42.375 49.2285 41.25C49.2285 40.125 48.8366 39.1706 48.0529 38.3869C47.2696 37.6031 46.3154 37.2113 45.1904 37.2113C44.0654 37.2113 43.111 37.6031 42.3273 38.3869C41.5435 39.1706 41.1516 40.125 41.1516 41.25C41.1516 42.375 41.5435 43.3294 42.3273 44.1131C43.111 44.8969 44.0654 45.2888 45.1904 45.2888ZM41.3441 33.75H53.1229L45.7673 24.0387H41.3441V33.75Z" fill="white"/>
</g>
</svg>
