<svg width="24" height="24" viewBox="0 0 24 24" fill="none" xmlns="http://www.w3.org/2000/svg">
<mask id="mask0_45_144" style="mask-type:alpha" maskUnits="userSpaceOnUse" x="0" y="0" width="24" height="24">
<rect width="24" height="24" fill="#D9D9D9"/>
</mask>
<g mask="url(#mask0_45_144)">
<path d="M5.6155 21C5.168 21 4.78683 20.8427 4.472 20.528C4.15733 20.2132 4 19.832 4 19.3845V8.2635C3.71283 8.14417 3.47433 7.9515 3.2845 7.6855C3.09483 7.4195 3 7.11408 3 6.76925V4.6155C3 4.168 3.15733 3.78683 3.472 3.472C3.78683 3.15733 4.168 3 4.6155 3H19.3845C19.832 3 20.2132 3.15733 20.528 3.472C20.8427 3.78683 21 4.168 21 4.6155V6.76925C21 7.11408 20.9052 7.4195 20.7155 7.6855C20.5257 7.9515 20.2872 8.14417 20 8.2635V19.3845C20 19.832 19.8427 20.2132 19.528 20.528C19.2132 20.8427 18.832 21 18.3845 21H5.6155ZM5 8.3845V19.2885C5 19.4937 5.07375 19.6635 5.22125 19.798C5.36858 19.9327 5.55125 20 5.76925 20H18.3845C18.564 20 18.7115 19.9423 18.827 19.827C18.9423 19.7115 19 19.564 19 19.3845V8.3845H5ZM4.6155 7.3845H19.3845C19.564 7.3845 19.7115 7.32683 19.827 7.2115C19.9423 7.09617 20 6.94875 20 6.76925V4.6155C20 4.436 19.9423 4.2885 19.827 4.173C19.7115 4.05767 19.564 4 19.3845 4H4.6155C4.436 4 4.2885 4.05767 4.173 4.173C4.05767 4.2885 4 4.436 4 4.6155V6.76925C4 6.94875 4.05767 7.09617 4.173 7.2115C4.2885 7.32683 4.436 7.3845 4.6155 7.3845ZM9.3845 12.8655H14.6155V12H9.3845V12.8655Z" fill="white"/>
</g>
</svg>
