<svg width="15" height="17" viewBox="0 0 15 17" fill="none" xmlns="http://www.w3.org/2000/svg">
<path d="M3.06962 5.36842H4.18804V4.25C4.18804 3.93908 4.07933 3.67498 3.86191 3.45771C3.64449 3.24029 3.38039 3.13158 3.06962 3.13158C2.7587 3.13158 2.49453 3.24029 2.2771 3.45771C2.05983 3.67498 1.9512 3.93908 1.9512 4.25C1.9512 4.56092 2.05983 4.82502 2.2771 5.04229C2.49453 5.25971 2.7587 5.36842 3.06962 5.36842ZM6.9237 5.36842C7.23462 5.36842 7.49879 5.25971 7.71621 5.04229C7.93348 4.82502 8.04212 4.56092 8.04212 4.25C8.04212 3.93908 7.93348 3.67498 7.71621 3.45771C7.49879 3.24029 7.23462 3.13158 6.9237 3.13158C6.61293 3.13158 6.34883 3.24029 6.13141 3.45771C5.91399 3.67498 5.80528 3.93908 5.80528 4.25V5.36842H6.9237ZM6.84988 17C6.39789 17 5.97058 16.9048 5.56795 16.7144C5.16532 16.5239 4.82867 16.2504 4.55801 15.8937L0 9.98996L0.330381 9.63743C0.554066 9.39884 0.821592 9.25546 1.13296 9.20729C1.44433 9.15897 1.73594 9.21803 2.00779 9.38445L4.18804 10.5545V6.71053H3.06962C2.38604 6.71053 1.80506 6.47141 1.32667 5.99317C0.848285 5.51493 0.609092 4.93425 0.609092 4.25112C0.609092 3.56784 0.848285 2.98678 1.32667 2.50795C1.80506 2.02896 2.38604 1.78947 3.06962 1.78947C3.28197 1.78947 3.47986 1.8187 3.66328 1.87716C3.8467 1.93576 4.02162 2.01607 4.18804 2.11807V0.671053C4.18804 0.480921 4.25239 0.321583 4.38108 0.19304C4.50962 0.0643466 4.66903 0 4.85932 0C5.0496 0 5.21125 0.0643466 5.34426 0.19304C5.47728 0.321583 5.54379 0.480921 5.54379 0.671053V2.24199C5.74689 2.09406 5.96394 1.98169 6.19493 1.90489C6.42593 1.82795 6.66885 1.78947 6.9237 1.78947C7.60728 1.78947 8.18826 2.02859 8.66664 2.50683C9.14503 2.98507 9.38422 3.56582 9.38422 4.24911C9.38422 4.93224 9.14503 5.51322 8.66664 5.99205C8.18826 6.47104 7.60728 6.71053 6.9237 6.71053H5.54379V12.9238L2.85779 11.4611L5.6487 15.0987C5.79558 15.2833 5.97453 15.4227 6.18554 15.5168C6.3967 15.6108 6.61814 15.6579 6.84988 15.6579H11.2511C11.8121 15.6579 12.2894 15.4626 12.6829 15.0721C13.0763 14.6814 13.273 14.2056 13.273 13.6447V10.2722C13.273 9.96506 13.1691 9.7076 12.9614 9.49987C12.7535 9.29214 12.496 9.18828 12.189 9.18828H7.67751V7.84617H12.189C12.8629 7.84617 13.4357 8.08201 13.9073 8.55368C14.3792 9.02551 14.6151 9.59836 14.6151 10.2722V13.6441C14.6151 14.5713 14.2857 15.3625 13.6268 16.0176C12.9682 16.6725 12.1762 17 11.2511 17H6.84988Z" fill="white"/>
</svg>
